<svg xmlns="http://www.w3.org/2000/svg" viewBox="0 0 64 64"><title>45_Bouncer</title><g id="_45_Bouncer" data-name="45_Bouncer"><path d="M53.35,51.64a24.78,24.78,0,0,0-18-12.07V37c3-1.79,5.53-5.76,6.89-9.75a3.25,3.25,0,0,0,.45.07A3.33,3.33,0,0,0,46,24a3.29,3.29,0,0,0-2.72-3.21,11.25,11.25,0,0,0-5.45-9.12,3.29,3.29,0,1,0-6.37-1.61A11.29,11.29,0,0,0,20.72,20.79,3.3,3.3,0,0,0,18,24a3.34,3.34,0,0,0,3.33,3.33,3.25,3.25,0,0,0,.45-.07c1.37,4,3.87,8,6.89,9.75v2.56a24.78,24.78,0,0,0-18,12.07,3.36,3.36,0,0,0,2.89,5H50.46a3.36,3.36,0,0,0,2.89-5ZM34,48.67v4H30v-4Zm-2-1.34a12.63,12.63,0,0,1-9.66-4.52,22.87,22.87,0,0,1,19.32,0A12.63,12.63,0,0,1,32,47.33Zm8.74-30.75a9.21,9.21,0,0,1,.77,1.83A3.25,3.25,0,0,0,40,18H24a3.25,3.25,0,0,0-1.51.41,9.78,9.78,0,0,1,.78-1.85,3.39,3.39,0,0,0,2.85-.65,23.31,23.31,0,0,0,11.76,0,3.4,3.4,0,0,0,2.12.76A2.94,2.94,0,0,0,40.74,16.58Zm1,7.1a3.27,3.27,0,0,1-5.72,1.06,3.43,3.43,0,0,0-2.7-1.41H30.65a3.45,3.45,0,0,0-2.71,1.41,3.27,3.27,0,0,1-5.72-1.06A14.18,14.18,0,0,1,22,21.33a2,2,0,0,1,2-2H40a2,2,0,0,1,2,2A13.19,13.19,0,0,1,41.78,23.68ZM24.49,27.26A4.68,4.68,0,0,0,29,25.57a2.2,2.2,0,0,1,1.67-.9h2.71a2.19,2.19,0,0,1,1.66.9,4.64,4.64,0,0,0,3.66,1.76,4.84,4.84,0,0,0,.84-.07,4.42,4.42,0,0,0,1.5-.58,24,24,0,0,1-1.77,4,14.34,14.34,0,0,0-7.25-2,13.69,13.69,0,0,0-7.24,2.06A23.79,23.79,0,0,1,23,26.68,4.34,4.34,0,0,0,24.49,27.26ZM44.67,24a2,2,0,0,1-2,1.94c.18-.68.35-1.35.46-2a5.14,5.14,0,0,0,.24-1.52v-.28A2,2,0,0,1,44.67,24Zm-10-15.33a2,2,0,0,1,2,2,1.67,1.67,0,0,1-.08.32,11.26,11.26,0,0,0-3.8-.91A2,2,0,0,1,34.67,8.67ZM32,11.33a10,10,0,0,1,7.93,4,2.11,2.11,0,0,1-1.4-.61.68.68,0,0,0-.65-.17,21.91,21.91,0,0,1-11.75,0,.7.7,0,0,0-.65.17,2.1,2.1,0,0,1-1.4.61A9.93,9.93,0,0,1,32,11.33ZM19.33,24a2,2,0,0,1,1.34-1.86v.28a5.14,5.14,0,0,0,.24,1.52,19.82,19.82,0,0,0,.47,2A2,2,0,0,1,19.33,24Zm6.12,7.87A12.4,12.4,0,0,1,32,30a13.09,13.09,0,0,1,6.55,1.87c-1.78,2.76-4.09,4.8-6.55,4.8S27.23,34.63,25.45,31.87ZM30,37.63a5.59,5.59,0,0,0,4,0v1.84c-.66-.06-1.33-.14-2-.14s-1.33.08-2,.14Zm22.2,16.7a2,2,0,0,1-1.74,1H13.54a2,2,0,0,1-1.73-3,23.33,23.33,0,0,1,9.31-8.89,14,14,0,0,0,7.55,4.84v5.07a.67.67,0,0,0,.66.67h5.34a.66.66,0,0,0,.66-.67V48.26a13.9,13.9,0,0,0,7.55-4.84,23.29,23.29,0,0,1,9.32,8.89A2,2,0,0,1,52.2,54.33Z"/></g></svg>